<svg xmlns="http://www.w3.org/2000/svg" viewBox="0 0 64 64" width="64" height="64">
  <rect width="64" height="64" rx="16" fill="#F5820A"/>
  <g transform="translate(32,32) scale(0.7) translate(-265.11876,-545.50000)">
    <path fill="#FFFEF9" transform="translate(247,504)" d="M0 0 C0.99 0 1.98 0 3 0 C3.35316012 4.94424166 2.30254044 7.67122397 0 12 C-0.144375 12.86625 -0.28875 13.7325 -0.4375 14.625 C-1 17 -1 17 -2.9375 18.875 C-5.63053878 21.64964601 -6.14285344 24.28569824 -7 28 C-7.66 28 -8.32 28 -9 28 C-9.33 29.98 -9.66 31.96 -10 34 C-10.66 34 -11.32 34 -12 34 C-12.33 35.98 -12.66 37.96 -13 40 C-11.89140625 40.10570312 -10.7828125 40.21140625 -9.640625 40.3203125 C-4.50981253 40.9644894 0.31302844 42.37339886 5.25 43.875 C6.13429687 44.13152344 7.01859375 44.38804687 7.9296875 44.65234375 C9.20972656 45.03712891 9.20972656 45.03712891 10.515625 45.4296875 C11.28165039 45.65897949 12.04767578 45.88827148 12.83691406 46.12451172 C15.23374306 47.09460526 16.94957598 48.44215213 19 50 C21.89920138 50.71489853 21.89920138 50.71489853 25 51.0625 C28.75971866 51.55596307 31.70219929 52.08949526 35 54 C35 54.66 35 55.32 35 56 C35.56847656 56.03738281 36.13695312 56.07476563 36.72265625 56.11328125 C42.03810654 56.5658488 46.43102294 57.14438934 51 60 C52.23751662 65.10791299 51.86639228 69.21759208 50.75 74.3125 C50.49734375 75.52550781 50.2446875 76.73851562 49.984375 77.98828125 C49 81 49 81 46 83 C44.30156606 76.20626425 46.07741484 70.61499641 48 64 C41.41277685 61.27859421 34.79179119 58.85656384 28.00390625 56.6875 C27.0897142 56.39190186 26.17552216 56.09630371 25.23362732 55.79174805 C22.34429445 54.85789451 19.4535324 53.92857743 16.5625 53 C12.7504859 51.77335072 8.93921646 50.54443207 5.12890625 49.3125 C4.22830475 49.02133301 3.32770325 48.73016602 2.39981079 48.43017578 C-3.78579529 46.42007159 -9.92224216 44.3191089 -16 42 C-15.51446762 35.75844605 -13.99613139 31.06031725 -11.3125 25.4375 C-10.58610919 23.8657052 -9.86219019 22.29276594 -9.140625 20.71875 C-8.78033203 19.935 -8.42003906 19.15125 -8.04882812 18.34375 C-5.90261872 13.54775133 -4.03059777 8.64281987 -2.12890625 3.74609375 C-1 1 -1 1 0 0 Z "/>
    <path fill="#FFFEF9" transform="translate(247,504)" d="M0 0 C0.99 0 1.98 0 3 0 C3.35316012 4.94424166 2.30254044 7.67122397 0 12 C-0.144375 12.86625 -0.28875 13.7325 -0.4375 14.625 C-1 17 -1 17 -2.9375 18.875 C-5.63053878 21.64964601 -6.14285344 24.28569824 -7 28 C-7.33 27.01 -7.66 26.02 -8 25 C-8.99 25 -9.98 25 -11 25 C-9.54366034 21.58248014 -8.08458127 18.16613652 -6.625 14.75 C-6.2125 13.78191406 -5.8 12.81382812 -5.375 11.81640625 C-4.97539062 10.88183594 -4.57578125 9.94726562 -4.1640625 8.984375 C-3.79748535 8.12553711 -3.4309082 7.26669922 -3.05322266 6.38183594 C-2.09645571 4.21813211 -1.07823088 2.10532038 0 0 Z "/>
  </g>
</svg>
