<svg xmlns="http://www.w3.org/2000/svg" viewBox="0 0 320 360" fill="none" aria-hidden="true">
  <rect width="320" height="360" fill="#0D0D0D"/>
  <!-- Stylized India + Nepal (decorative fallback when live map unavailable) -->
  <path fill="rgba(245,130,10,0.14)" stroke="#F5820A" stroke-width="1.2" stroke-linejoin="round"
    d="M148 42 L168 38 L182 52 L198 48 L210 62 L228 58 L242 72 L258 88 L268 108 L276 132 L282 158 L288 188 L292 218 L288 252 L278 288 L262 318 L238 332 L210 338 L178 334 L148 322 L118 308 L92 288 L72 262 L58 232 L50 198 L48 168 L52 138 L62 108 L78 82 L98 62 L122 48 Z"/>
  <path fill="rgba(245,130,10,0.22)" stroke="#E47A0A" stroke-width="1" stroke-linejoin="round"
    d="M210 62 L228 44 L242 36 L254 42 L262 56 L258 72 L246 80 L232 76 L218 68 Z"/>
  <circle cx="118" cy="168" r="4" fill="#F5820A" opacity="0.85"/>
  <circle cx="198" cy="128" r="4" fill="#F5820A" opacity="0.85"/>
  <circle cx="168" cy="228" r="4" fill="#F5820A" opacity="0.85"/>
  <circle cx="228" cy="198" r="4" fill="#F5820A" opacity="0.85"/>
  <circle cx="248" cy="108" r="4" fill="#F5820A" opacity="0.85"/>
</svg>
